<?xml version="1.0" standalone="no"?>
<!DOCTYPE svg PUBLIC "-//W3C//DTD SVG 20010904//EN"
 "http://www.w3.org/TR/2001/REC-SVG-20010904/DTD/svg10.dtd">
<svg version="1.0" xmlns="http://www.w3.org/2000/svg"
 width="820.000000pt" height="200.000000pt" viewBox="0 0 820.000000 200.000000"
 preserveAspectRatio="xMidYMid meet">

<g transform="translate(0.000000,200.000000) scale(0.100000,-0.100000)"
fill="#000000" stroke="none">
<path d="M3650 1603 c-96 -36 -263 -244 -475 -591 -37 -61 -70 -111 -71 -109
-2 2 1 44 7 93 17 136 7 346 -20 415 -52 136 -120 184 -261 184 -76 0 -93 -4
-151 -32 -47 -24 -75 -45 -95 -75 -27 -38 -29 -49 -29 -128 0 -79 2 -90 28
-123 15 -20 40 -43 55 -51 38 -19 102 -29 102 -16 0 5 -11 10 -25 10 -67 0
-115 73 -115 172 0 82 29 142 88 183 41 28 50 30 131 30 80 0 91 -2 129 -29
30 -20 51 -47 72 -90 42 -87 54 -172 47 -350 -5 -131 -13 -187 -43 -302 -15
-57 73 -25 89 32 18 62 76 165 178 319 175 264 298 402 380 426 42 13 49 23
23 33 -18 7 -23 7 -44 -1z"/>
<path d="M3606 1406 c-37 -34 -40 -43 -30 -70 9 -25 22 -19 49 22 14 20 32 47
41 60 16 21 15 22 -4 22 -11 0 -37 -15 -56 -34z"/>
<path d="M5020 1423 c-14 -9 -31 -24 -37 -33 -15 -18 -13 -65 3 -65 10 0 84
98 84 111 0 10 -28 3 -50 -13z"/>
<path d="M3811 1398 c-19 -20 -54 -106 -50 -124 6 -35 -2 -44 -42 -44 -42 0
-79 -14 -79 -30 0 -5 24 -10 53 -12 l54 -3 -55 -194 c-49 -176 -53 -195 -38
-209 14 -14 18 -14 48 0 46 22 128 90 128 106 0 7 -22 -5 -48 -27 -94 -80
-102 -52 -43 150 59 201 50 186 118 191 32 2 60 0 61 -4 2 -5 26 -8 53 -8 33
0 49 -4 49 -13 0 -6 -22 -91 -50 -187 -55 -191 -57 -208 -35 -216 28 -11 174
85 175 115 0 7 -15 0 -36 -19 -46 -40 -81 -57 -94 -44 -10 10 29 172 73 299
18 52 29 71 43 72 106 11 134 16 134 24 0 5 -31 9 -70 9 -38 0 -70 2 -70 5 0
3 16 44 35 92 19 48 35 89 35 91 0 2 -15 2 -32 0 -28 -3 -37 -10 -57 -51 -13
-26 -26 -68 -29 -92 l-5 -45 -113 0 -113 0 13 38 c8 20 23 61 35 90 12 29 21
55 21 57 0 15 -52 2 -69 -17z"/>
<path d="M4378 1263 c-7 -10 -29 -25 -49 -35 -100 -46 -210 -359 -155 -443 12
-18 25 -25 47 -25 94 0 201 138 215 278 6 53 10 61 30 66 29 8 31 26 4 33 -14
4 -25 24 -40 74 -22 72 -30 81 -52 52z m12 -123 c24 -47 25 -79 4 -151 -21
-70 -57 -131 -100 -169 -56 -49 -84 -35 -84 41 0 104 114 346 152 323 4 -3 17
-23 28 -44z"/>
<path d="M5608 1263 c-7 -10 -29 -25 -49 -35 -100 -46 -210 -359 -155 -443 12
-18 25 -25 47 -25 94 0 201 138 215 278 6 53 10 61 30 66 29 8 31 26 4 33 -14
4 -25 24 -40 74 -22 72 -30 81 -52 52z m12 -123 c24 -47 25 -79 4 -151 -21
-70 -57 -131 -100 -169 -56 -49 -84 -35 -84 41 0 104 114 346 152 323 4 -3 17
-23 28 -44z"/>
<path d="M5325 1241 c-43 -26 -112 -103 -179 -198 -32 -46 -59 -83 -62 -83 -6
0 36 108 77 198 l38 82 -28 0 c-15 0 -35 -8 -44 -18 -22 -24 -46 -83 -51 -125
-3 -19 -28 -101 -56 -182 -28 -81 -49 -149 -46 -152 12 -13 49 24 75 75 61
119 261 384 261 344 0 -6 -16 -51 -36 -99 -61 -146 -84 -224 -84 -280 0 -63
14 -74 66 -50 35 17 49 45 17 32 -35 -13 -38 -10 -36 36 3 61 52 195 120 327
29 58 53 107 53 109 0 11 -60 0 -85 -16z"/>
<path d="M4583 1235 c-24 -17 -53 -93 -53 -139 0 -33 -37 -178 -66 -259 -11
-31 -13 -52 -7 -58 17 -17 50 23 82 102 30 72 110 210 149 255 9 11 30 29 45
38 27 18 27 18 27 -4 0 -12 -5 -30 -11 -42 -14 -25 -6 -33 20 -19 27 15 51 62
51 101 0 27 -3 30 -30 30 -41 0 -106 -65 -189 -190 -43 -65 -61 -85 -56 -65 5
25 61 177 90 248 9 22 -21 23 -52 2z"/>
<path d="M3538 1223 c-22 -25 -48 -91 -48 -122 0 -14 -20 -84 -45 -156 -46
-131 -52 -160 -36 -169 9 -6 94 35 131 63 36 29 18 36 -29 11 -36 -18 -42 -19
-47 -5 -9 23 41 176 96 293 l49 102 -28 0 c-15 0 -35 -8 -43 -17z"/>
<path d="M4935 1223 c-24 -23 -55 -99 -55 -131 0 -15 -21 -89 -46 -166 -49
-147 -49 -164 5 -145 32 12 125 79 118 85 -3 3 -24 -4 -47 -16 -25 -13 -46
-18 -51 -13 -16 16 48 208 111 333 16 33 30 62 30 65 0 12 -50 3 -65 -12z"/>
</g>
</svg>
